Coordinates
version=1
nRows=26
nColumns=24
inDegrees=yes

Units are S.I. units (second, meters, Newtons, ...)
Angles are in degrees.

endheader
time	pelvis_tilt	pelvis_list	pelvis_rotation	pelvis_tx	pelvis_ty	pelvis_tz	hip_flexion_r	hip_adduction_r	hip_rotation_r	knee_angle_r	ankle_angle_r	subtalar_angle_r	mtp_angle_r	hip_flexion_l	hip_adduction_l	hip_rotation_l	knee_angle_l	ankle_angle_l	subtalar_angle_l	mtp_angle_l	lumbar_extension	lumbar_bending	lumbar_rotation
      0.96300000	     -1.18305391	     -0.88081845	      0.11280273	     -0.39055980	      0.99297745	      0.35018599	     10.12811376	      5.73137411	      2.40841036	    -17.98433092	      9.85729065	     -8.87867304	     -1.37870125	     20.75758404	     -1.66367296	     -0.16531095	    -70.62725946	     -2.86844407	    -14.74082124	      1.29587094	      4.07093057	      4.13840784	      3.73421337
      0.96716667	     -1.18257860	     -0.82218644	      0.02791930	     -0.38606865	      0.99342557	      0.35042631	      9.67444789	      5.66068286	      2.38600602	    -17.65462079	      9.90553157	     -8.64355931	     -1.41359066	     21.34420016	     -1.61689831	     -0.22218432	    -70.36976542	     -2.34392547	    -14.68223420	      1.23817890	      3.99044884	      4.07403802	      3.88889065
      0.97133333	     -1.17583843	     -0.75539007	     -0.05529977	     -0.38157107	      0.99387139	      0.35064390	      9.21360379	      5.57814366	      2.36496219	    -17.32503057	      9.95443508	     -8.42638298	     -1.44071913	     21.90700211	     -1.55402876	     -0.27260418	    -70.05955038	     -1.84273257	    -14.62515765	      1.19169854	      3.90809928	      4.01382409	      4.01639019
      0.97550000	     -1.16771410	     -0.71009363	     -0.13749548	     -0.37708056	      0.99426873	      0.35088532	      8.75385615	      5.51955423	      2.33123516	    -16.99725482	      9.99683700	     -8.17355153	     -1.46940387	     22.46457798	     -1.52742880	     -0.32625386	    -69.72726311	     -1.33213808	    -14.49827754	      1.13907333	      3.81621873	      3.94633244	      4.16515371
      0.97966667	     -1.15921934	     -0.65386203	     -0.20903280	     -0.37258715	      0.99464715	      0.35107868	      8.29494485	      5.44173932	      2.27887025	    -16.67334551	     10.06789662	     -7.88826313	     -1.50570495	     23.00704841	     -1.47592515	     -0.36134444	    -69.34514264	     -0.87159610	    -14.34030961	      1.06334359	      3.72980989	      3.88996620	      4.32982180
      0.98383333	     -1.15407665	     -0.59548036	     -0.29135300	     -0.36809659	      0.99500099	      0.35127636	      7.84437896	      5.36260997	      2.23760110	    -16.35820814	     10.12226055	     -7.62562049	     -1.53612531	     23.53654691	     -1.42461399	     -0.40663898	    -68.92093858	     -0.40352401	    -14.20875766	      0.99475154	      3.64744939	      3.82712553	      4.46043313
      0.98800000	     -1.15575400	     -0.54674313	     -0.38251209	     -0.36362163	      0.99530015	      0.35148860	      7.40772567	      5.29631535	      2.21423334	    -16.05474937	     10.16537143	     -7.40002177	     -1.55262678	     24.06348351	     -1.39045321	     -0.46096705	    -68.46641303	      0.07279105	    -14.07324175	      0.95454453	      3.56623968	      3.76931960	      4.56408130
      0.99216667	     -1.15016483	     -0.49787758	     -0.46228547	     -0.35913094	      0.99558428	      0.35167783	      6.95845731	      5.22469027	      2.16758807	    -15.74304853	     10.22560794	     -7.15275996	     -1.56464625	     24.56902981	     -1.35121327	     -0.50028277	    -67.97203039	      0.50842726	    -13.88517090	      0.91732586	      3.49230003	      3.71185562	      4.68415490
      0.99633333	     -1.14657813	     -0.44657355	     -0.54322195	     -0.35464894	      0.99584751	      0.35185733	      6.51165134	      5.15088536	      2.13720098	    -15.43197577	     10.27882951	     -6.89376017	     -1.57171462	     25.06198316	     -1.30502451	     -0.53401734	    -67.43521560	      0.93355048	    -13.68915795	      0.88612950	      3.40633266	      3.65716574	      4.80396598
      1.00050000	     -1.14125219	     -0.40827176	     -0.62057844	     -0.35015955	      0.99607788	      0.35203310	      6.06324644	      5.08876859	      2.08650787	    -15.12058850	     10.34043346	     -6.63227455	     -1.57435753	     25.54071378	     -1.27545170	     -0.56378042	    -66.86605040	      1.33689571	    -13.46037150	      0.85702135	      3.32929940	      3.61672935	      4.92359267
      1.00466667	     -1.13165460	     -0.35484849	     -0.70129191	     -0.34566839	      0.99631477	      0.35220451	      5.60875165	      5.01017556	      2.05511369	    -14.80599131	     10.39394332	     -6.38407729	     -1.57289786	     25.99377529	     -1.22615669	     -0.59487621	    -66.24699200	      1.71615010	    -13.24453901	      0.83438202	      3.23805790	      3.55065453	      5.03521037
      1.00883333	     -1.13960325	     -0.32723897	     -0.78348172	     -0.34117331	      0.99646055	      0.35237610	      5.17748768	      4.95823349	      2.00519802	    -14.50038660	     10.45555603	     -6.12520133	     -1.56688051	     26.45878242	     -1.20967419	     -0.62278603	    -65.60850552	      2.08243272	    -12.99253947	      0.81350281	      3.18853071	      3.52931215	      5.15236169
      1.01300000	     -1.12309663	     -0.28015967	     -0.86568168	     -0.33667699	      0.99663560	      0.35254200	      4.71845019	      4.88308178	      1.96006274	    -14.19143983	     10.51398446	     -5.86621237	     -1.55698020	     26.87472128	     -1.16987523	     -0.65385244	    -64.91940438	      2.43223663	    -12.73710414	      0.79523562	      3.09865613	      3.47563516	      5.26889637
      1.01716667	     -1.12846435	     -0.24995655	     -0.94746588	     -0.33218692	      0.99674479	      0.35270931	      4.28376904	      4.82759741	      1.92155310	    -13.88204442	     10.57037214	     -5.61131339	     -1.54297408	     27.30417799	     -1.15010237	     -0.68006209	    -64.20402939	      2.75734496	    -12.48316151	      0.77988772	      3.03560656	      3.44397067	      5.38106647
      1.02133333	     -1.13684346	     -0.21066981	     -1.03076316	     -0.32769109	      0.99682192	      0.35286986	      3.85680482	      4.76028231	      1.87751006	    -13.58286095	     10.63065592	     -5.35872701	     -1.52518958	     27.71836428	     -1.11928768	     -0.70761140	    -63.44964323	      3.06449509	    -12.22702907	      0.76664431	      2.97582102	      3.39945830	      5.49056234
      1.02550000	     -1.13059650	     -0.17793148	     -1.11480801	     -0.32318960	      0.99688948	      0.35303620	      3.41186167	      4.69942419	      1.83145474	    -13.27847469	     10.69373475	     -5.09566319	     -1.50253739	     28.10050681	     -1.09905680	     -0.73833211	    -62.66131995	      3.35172726	    -11.96846783	      0.75400694	      2.90064153	      3.36113548	      5.60335467
      1.02966667	     -1.12955623	     -0.14040491	     -1.20093656	     -0.31868774	      0.99693615	      0.35319543	      2.97406844	      4.63286403	      1.79624057	    -12.97618475	     10.75473734	     -4.85008135	     -1.47762063	     28.46843048	     -1.07206004	     -0.76908387	    -61.83113936	      3.61094043	    -11.72498882	      0.74363651	      2.83305846	      3.31845261	      5.70656160
      1.03383333	     -1.13689134	     -0.12015955	     -1.28437436	     -0.31418722	      0.99692818	      0.35335168	      2.54449396	      4.58495479	      1.75916995	    -12.67024656	     10.81691553	     -4.60741263	     -1.44931045	     28.83529007	     -1.06636855	     -0.79786459	    -60.97892248	      3.85478023	    -11.48196463	      0.73484029	      2.77498847	      3.29658589	      5.80835346
      1.03800000	     -1.16331339	     -0.10240208	     -1.36905877	     -0.30969153	      0.99684578	      0.35351104	      2.14284344	      4.54044200	      1.72561878	    -12.37936761	     10.88430094	     -4.37432089	     -1.41743378	     29.20896331	     -1.06537178	     -0.82808936	    -60.10004628	      4.08268590	    -11.24669392	      0.72676060	      2.73751466	      3.27515947	      5.90452815
      1.04216667	     -1.16730937	     -0.07439512	     -1.45679249	     -0.30518625	      0.99678678	      0.35366653	      1.71642973	      4.48314199	      1.69607437	    -12.08721649	     10.95536327	     -4.14275103	     -1.38482078	     29.53423233	     -1.05321397	     -0.86504058	    -59.17474099	      4.28229131	    -11.03250663	      0.71978426	      2.67533263	      3.24459445	      5.99630418
      1.04633333	     -1.17908781	     -0.06207915	     -1.54133257	     -0.30067628	      0.99667540	      0.35382408	      1.29817904	      4.44258190	      1.65968445	    -11.79329315	     11.02928028	     -3.90896788	     -1.34789003	     29.85675215	     -1.06319094	     -0.90665395	    -58.22865077	      4.47246606	    -10.82426816	      0.71280798	      2.62324189	      3.22616900	      6.08981288
      1.05050000	     -1.19352377	     -0.04731229	     -1.62601765	     -0.29616797	      0.99654105	      0.35397069	      0.88768780	      4.39917293	      1.63345674	    -11.50863332	     11.10717639	     -3.69085852	     -1.31047161	     30.16219306	     -1.06723363	     -0.94484576	    -57.24455131	      4.63723727	    -10.64112324	      0.70588249	      2.57381910	      3.20806999	      6.17545900
      1.05466667	     -1.18355542	     -0.04150526	     -1.69244834	     -0.29163272	      0.99640499	      0.35408899	      0.44620238	      4.36084478	      1.55607609	    -11.21623201	     11.19917448	     -3.43108749	     -1.24538171	     30.42647401	     -1.07370316	     -0.97422503	    -56.23484839	      4.79065597	    -10.48543716	      0.69088083	      2.49869216	      3.19769212	      6.28718635
      1.05883333	     -1.22135001	     -0.02808217	     -1.79072878	     -0.28712882	      0.99616452	      0.35425312	      0.07208569	      4.32159282	      1.56383226	    -10.95377798	     11.28811993	     -3.25681074	     -1.20880425	     30.72438372	     -1.09263442	     -1.04063646	    -55.19403629	      4.91460025	    -10.34956049	      0.68385025	      2.48108201	      3.17846321	      6.34018543
      1.06300000	     -1.22629473	     -0.02181768	     -1.86966424	     -0.28258690	      0.99593890	      0.35439478	     -0.34954748	      4.28604716	      1.52527446	    -10.66913587	     11.38465119	     -3.05150607	     -1.15989118	     30.97116423	     -1.11529187	     -1.10600482	    -54.12929097	      5.03900388	    -10.22785409	      0.67327496	      2.42488502	      3.16701456	      6.43429491
      1.06716667	     -1.26408096	     -0.02835426	     -1.95357219	     -0.27806744	      0.99563208	      0.35453276	     -0.72392860	      4.26793511	      1.52721006	    -10.40944763	     11.48728120	     -2.87876547	     -1.11740566	     31.23936899	     -1.14789959	     -1.15880760	    -53.03932772	      5.14168330	    -10.13551706	      0.66344464	      2.40489455	      3.17090288	      6.50567972
